<mxfile host="app.diagrams.net" modified="2024-03-26T13:55:51.322Z" agent="Mozilla/5.0 (Windows NT 10.0; Win64; x64) AppleWebKit/537.36 (KHTML, like Gecko) Chrome/120.0.0.0 YaBrowser/24.1.0.0 Safari/537.36" etag="t7Ahlk1YM6K9im4vcphX" version="24.1.0" type="google">
  <diagram name="Page-1" id="0783ab3e-0a74-02c8-0abd-f7b4e66b4bec">
    <mxGraphModel grid="1" page="1" gridSize="10" guides="1" tooltips="1" connect="1" arrows="1" fold="1" pageScale="1" pageWidth="850" pageHeight="1100" background="none" math="0" shadow="0">
      <root>
        <mxCell id="0" />
        <mxCell id="1" parent="0" />
        <mxCell id="Tzr4vlSNrSpTryhZv_By-53" style="edgeStyle=orthogonalEdgeStyle;rounded=0;orthogonalLoop=1;jettySize=auto;html=1;entryX=0;entryY=0.3333333333333333;entryDx=0;entryDy=0;entryPerimeter=0;" edge="1" parent="1" source="UNCZg-WoFEXvvRAxbu1Z-2" target="UNCZg-WoFEXvvRAxbu1Z-3">
          <mxGeometry relative="1" as="geometry">
            <mxPoint x="-5" y="379.9999999999998" as="targetPoint" />
            <Array as="points">
              <mxPoint x="-5" y="330" />
            </Array>
          </mxGeometry>
        </mxCell>
        <mxCell id="UNCZg-WoFEXvvRAxbu1Z-2" value="&lt;div&gt;Авторизованный пользователь&lt;div&gt;&lt;br&gt;&lt;/div&gt;&lt;/div&gt;" style="shape=umlActor;verticalLabelPosition=bottom;verticalAlign=top;html=1;outlineConnect=0;" vertex="1" parent="1">
          <mxGeometry x="-20" y="220" width="30" height="60" as="geometry" />
        </mxCell>
        <mxCell id="Tzr4vlSNrSpTryhZv_By-34" style="edgeStyle=orthogonalEdgeStyle;rounded=0;orthogonalLoop=1;jettySize=auto;html=1;entryX=0;entryY=0.5;entryDx=0;entryDy=0;curved=1;" edge="1" parent="1" source="UNCZg-WoFEXvvRAxbu1Z-3" target="Tzr4vlSNrSpTryhZv_By-10">
          <mxGeometry relative="1" as="geometry" />
        </mxCell>
        <mxCell id="Tzr4vlSNrSpTryhZv_By-39" style="edgeStyle=orthogonalEdgeStyle;rounded=0;orthogonalLoop=1;jettySize=auto;html=1;entryX=0;entryY=0.5;entryDx=0;entryDy=0;curved=1;" edge="1" parent="1" source="UNCZg-WoFEXvvRAxbu1Z-3" target="Tzr4vlSNrSpTryhZv_By-38">
          <mxGeometry relative="1" as="geometry" />
        </mxCell>
        <mxCell id="Tzr4vlSNrSpTryhZv_By-45" style="edgeStyle=orthogonalEdgeStyle;rounded=0;orthogonalLoop=1;jettySize=auto;html=1;entryX=0;entryY=0.5;entryDx=0;entryDy=0;curved=1;" edge="1" parent="1" source="UNCZg-WoFEXvvRAxbu1Z-3" target="Tzr4vlSNrSpTryhZv_By-7">
          <mxGeometry relative="1" as="geometry" />
        </mxCell>
        <mxCell id="Tzr4vlSNrSpTryhZv_By-46" style="edgeStyle=orthogonalEdgeStyle;rounded=0;orthogonalLoop=1;jettySize=auto;html=1;entryX=0;entryY=0.5;entryDx=0;entryDy=0;curved=1;" edge="1" parent="1" source="UNCZg-WoFEXvvRAxbu1Z-3" target="Tzr4vlSNrSpTryhZv_By-16">
          <mxGeometry relative="1" as="geometry" />
        </mxCell>
        <mxCell id="Tzr4vlSNrSpTryhZv_By-47" style="edgeStyle=orthogonalEdgeStyle;rounded=0;orthogonalLoop=1;jettySize=auto;html=1;entryX=0;entryY=0.5;entryDx=0;entryDy=0;curved=1;" edge="1" parent="1" source="UNCZg-WoFEXvvRAxbu1Z-3" target="Tzr4vlSNrSpTryhZv_By-43">
          <mxGeometry relative="1" as="geometry" />
        </mxCell>
        <mxCell id="Tzr4vlSNrSpTryhZv_By-48" style="edgeStyle=orthogonalEdgeStyle;rounded=0;orthogonalLoop=1;jettySize=auto;html=1;entryX=0;entryY=0.5;entryDx=0;entryDy=0;curved=1;" edge="1" parent="1" source="UNCZg-WoFEXvvRAxbu1Z-3" target="Tzr4vlSNrSpTryhZv_By-20">
          <mxGeometry relative="1" as="geometry" />
        </mxCell>
        <mxCell id="Tzr4vlSNrSpTryhZv_By-49" style="edgeStyle=orthogonalEdgeStyle;rounded=0;orthogonalLoop=1;jettySize=auto;html=1;entryX=0;entryY=0.5;entryDx=0;entryDy=0;curved=1;" edge="1" parent="1" source="UNCZg-WoFEXvvRAxbu1Z-3" target="Tzr4vlSNrSpTryhZv_By-23">
          <mxGeometry relative="1" as="geometry" />
        </mxCell>
        <mxCell id="Tzr4vlSNrSpTryhZv_By-50" style="edgeStyle=orthogonalEdgeStyle;rounded=0;orthogonalLoop=1;jettySize=auto;html=1;entryX=0;entryY=0.5;entryDx=0;entryDy=0;curved=1;" edge="1" parent="1" source="UNCZg-WoFEXvvRAxbu1Z-3" target="Tzr4vlSNrSpTryhZv_By-33">
          <mxGeometry relative="1" as="geometry" />
        </mxCell>
        <mxCell id="Tzr4vlSNrSpTryhZv_By-66" style="edgeStyle=orthogonalEdgeStyle;rounded=0;orthogonalLoop=1;jettySize=auto;html=1;entryX=0;entryY=0.5;entryDx=0;entryDy=0;curved=1;" edge="1" parent="1" source="UNCZg-WoFEXvvRAxbu1Z-3" target="Tzr4vlSNrSpTryhZv_By-65">
          <mxGeometry relative="1" as="geometry" />
        </mxCell>
        <mxCell id="UNCZg-WoFEXvvRAxbu1Z-3" value="Пользователь" style="shape=umlActor;verticalLabelPosition=bottom;verticalAlign=top;html=1;outlineConnect=0;" vertex="1" parent="1">
          <mxGeometry x="110" y="310" width="30" height="60" as="geometry" />
        </mxCell>
        <mxCell id="Tzr4vlSNrSpTryhZv_By-51" style="edgeStyle=orthogonalEdgeStyle;rounded=0;orthogonalLoop=1;jettySize=auto;html=1;" edge="1" parent="1" source="UNCZg-WoFEXvvRAxbu1Z-4" target="UNCZg-WoFEXvvRAxbu1Z-3">
          <mxGeometry relative="1" as="geometry" />
        </mxCell>
        <mxCell id="Tzr4vlSNrSpTryhZv_By-57" style="edgeStyle=orthogonalEdgeStyle;rounded=0;orthogonalLoop=1;jettySize=auto;html=1;entryX=0;entryY=0.5;entryDx=0;entryDy=0;curved=1;" edge="1" parent="1" source="UNCZg-WoFEXvvRAxbu1Z-4" target="Tzr4vlSNrSpTryhZv_By-56">
          <mxGeometry relative="1" as="geometry" />
        </mxCell>
        <mxCell id="UNCZg-WoFEXvvRAxbu1Z-4" value="Автор" style="shape=umlActor;verticalLabelPosition=bottom;verticalAlign=top;html=1;outlineConnect=0;" vertex="1" parent="1">
          <mxGeometry x="110" y="650" width="30" height="60" as="geometry" />
        </mxCell>
        <mxCell id="Tzr4vlSNrSpTryhZv_By-59" style="edgeStyle=orthogonalEdgeStyle;rounded=0;orthogonalLoop=1;jettySize=auto;html=1;" edge="1" parent="1" source="UNCZg-WoFEXvvRAxbu1Z-5" target="Tzr4vlSNrSpTryhZv_By-58">
          <mxGeometry relative="1" as="geometry" />
        </mxCell>
        <mxCell id="Tzr4vlSNrSpTryhZv_By-61" style="edgeStyle=orthogonalEdgeStyle;rounded=0;orthogonalLoop=1;jettySize=auto;html=1;" edge="1" parent="1" source="UNCZg-WoFEXvvRAxbu1Z-5">
          <mxGeometry relative="1" as="geometry">
            <mxPoint x="100" y="350" as="targetPoint" />
            <Array as="points">
              <mxPoint x="30" y="810" />
              <mxPoint x="30" y="350" />
            </Array>
          </mxGeometry>
        </mxCell>
        <mxCell id="UNCZg-WoFEXvvRAxbu1Z-5" value="Администратор" style="shape=umlActor;verticalLabelPosition=bottom;verticalAlign=top;html=1;outlineConnect=0;" vertex="1" parent="1">
          <mxGeometry x="110" y="780" width="30" height="60" as="geometry" />
        </mxCell>
        <mxCell id="Tzr4vlSNrSpTryhZv_By-5" value="Регистрация" style="ellipse;whiteSpace=wrap;html=1;" vertex="1" parent="1">
          <mxGeometry x="160" width="90" height="40" as="geometry" />
        </mxCell>
        <mxCell id="Tzr4vlSNrSpTryhZv_By-7" value="Скачивание мобильного приложения" style="ellipse;whiteSpace=wrap;html=1;" vertex="1" parent="1">
          <mxGeometry x="272.5" y="10" width="120" height="50" as="geometry" />
        </mxCell>
        <mxCell id="Tzr4vlSNrSpTryhZv_By-36" style="edgeStyle=orthogonalEdgeStyle;rounded=0;orthogonalLoop=1;jettySize=auto;html=1;entryX=0;entryY=0.5;entryDx=0;entryDy=0;curved=1;" edge="1" parent="1" source="Tzr4vlSNrSpTryhZv_By-10" target="Tzr4vlSNrSpTryhZv_By-13">
          <mxGeometry relative="1" as="geometry" />
        </mxCell>
        <mxCell id="Tzr4vlSNrSpTryhZv_By-64" style="edgeStyle=orthogonalEdgeStyle;rounded=0;orthogonalLoop=1;jettySize=auto;html=1;entryX=0;entryY=0.5;entryDx=0;entryDy=0;curved=1;" edge="1" parent="1" source="Tzr4vlSNrSpTryhZv_By-10" target="Tzr4vlSNrSpTryhZv_By-63">
          <mxGeometry relative="1" as="geometry" />
        </mxCell>
        <mxCell id="Tzr4vlSNrSpTryhZv_By-10" value="Просмотр новостной статьи" style="ellipse;whiteSpace=wrap;html=1;" vertex="1" parent="1">
          <mxGeometry x="272.5" y="80" width="150" height="40" as="geometry" />
        </mxCell>
        <mxCell id="Tzr4vlSNrSpTryhZv_By-13" value="Переход на страницу автора" style="ellipse;whiteSpace=wrap;html=1;" vertex="1" parent="1">
          <mxGeometry x="490" y="70" width="100" height="60" as="geometry" />
        </mxCell>
        <mxCell id="Tzr4vlSNrSpTryhZv_By-16" value="&lt;b id=&quot;docs-internal-guid-956d68f8-7fff-0316-8640-9293279d2681&quot; style=&quot;font-weight:normal;&quot;&gt;&lt;span style=&quot;font-family: Arial, sans-serif; color: rgb(0, 0, 0); background-color: transparent; font-weight: 400; font-style: normal; font-variant: normal; text-decoration: none; vertical-align: baseline; white-space: pre-wrap;&quot;&gt;&lt;font style=&quot;font-size: 12px;&quot;&gt;Выбор категории&lt;/font&gt;&lt;/span&gt;&lt;/b&gt;" style="ellipse;whiteSpace=wrap;html=1;" vertex="1" parent="1">
          <mxGeometry x="272.5" y="150" width="105" height="40" as="geometry" />
        </mxCell>
        <mxCell id="Tzr4vlSNrSpTryhZv_By-20" value="Игра" style="ellipse;whiteSpace=wrap;html=1;" vertex="1" parent="1">
          <mxGeometry x="297.5" y="270" width="70" height="30" as="geometry" />
        </mxCell>
        <mxCell id="Tzr4vlSNrSpTryhZv_By-23" value="&lt;font style=&quot;font-size: 12px;&quot;&gt;&lt;b id=&quot;docs-internal-guid-cde03f89-7fff-2e9b-2b48-cb00546e7337&quot; style=&quot;font-weight:normal;&quot;&gt;&lt;span style=&quot;font-family: Arial, sans-serif; color: rgb(0, 0, 0); background-color: transparent; font-weight: 400; font-style: normal; font-variant: normal; text-decoration: none; vertical-align: baseline; white-space: pre-wrap;&quot;&gt;Просмотр мини-приложения “Гид потребителя”&lt;/span&gt;&lt;/b&gt;&lt;/font&gt;" style="ellipse;whiteSpace=wrap;html=1;" vertex="1" parent="1">
          <mxGeometry x="272.5" y="320" width="120" height="70" as="geometry" />
        </mxCell>
        <mxCell id="Tzr4vlSNrSpTryhZv_By-26" style="edgeStyle=orthogonalEdgeStyle;rounded=0;orthogonalLoop=1;jettySize=auto;html=1;entryX=0;entryY=1;entryDx=0;entryDy=0;curved=1;" edge="1" parent="1" source="Tzr4vlSNrSpTryhZv_By-25" target="Tzr4vlSNrSpTryhZv_By-5">
          <mxGeometry relative="1" as="geometry" />
        </mxCell>
        <mxCell id="Tzr4vlSNrSpTryhZv_By-25" value="Неавторизованный&amp;nbsp;&lt;div&gt;пользователь&lt;div&gt;&lt;br&gt;&lt;/div&gt;&lt;/div&gt;" style="shape=umlActor;verticalLabelPosition=bottom;verticalAlign=top;html=1;outlineConnect=0;" vertex="1" parent="1">
          <mxGeometry x="120" y="130" width="30" height="60" as="geometry" />
        </mxCell>
        <mxCell id="Tzr4vlSNrSpTryhZv_By-33" value="Смена региона" style="ellipse;whiteSpace=wrap;html=1;" vertex="1" parent="1">
          <mxGeometry x="282.5" y="400" width="100" height="40" as="geometry" />
        </mxCell>
        <mxCell id="Tzr4vlSNrSpTryhZv_By-38" value="Приобретение рекламы" style="ellipse;whiteSpace=wrap;html=1;" vertex="1" parent="1">
          <mxGeometry x="281" y="470" width="112" height="60" as="geometry" />
        </mxCell>
        <mxCell id="Tzr4vlSNrSpTryhZv_By-40" value="Оформление подписки на газету" style="ellipse;whiteSpace=wrap;html=1;" vertex="1" parent="1">
          <mxGeometry x="277" y="560" width="120" height="50" as="geometry" />
        </mxCell>
        <mxCell id="Tzr4vlSNrSpTryhZv_By-41" style="edgeStyle=orthogonalEdgeStyle;rounded=0;orthogonalLoop=1;jettySize=auto;html=1;entryX=0.005;entryY=0.322;entryDx=0;entryDy=0;entryPerimeter=0;curved=1;" edge="1" parent="1" source="UNCZg-WoFEXvvRAxbu1Z-3" target="Tzr4vlSNrSpTryhZv_By-40">
          <mxGeometry relative="1" as="geometry" />
        </mxCell>
        <mxCell id="Tzr4vlSNrSpTryhZv_By-43" value="Покупка электронной книги" style="ellipse;whiteSpace=wrap;html=1;" vertex="1" parent="1">
          <mxGeometry x="272.5" y="200" width="120" height="50" as="geometry" />
        </mxCell>
        <mxCell id="Tzr4vlSNrSpTryhZv_By-52" style="edgeStyle=orthogonalEdgeStyle;rounded=0;orthogonalLoop=1;jettySize=auto;html=1;entryX=0.5;entryY=0;entryDx=0;entryDy=0;entryPerimeter=0;" edge="1" parent="1" source="Tzr4vlSNrSpTryhZv_By-25" target="UNCZg-WoFEXvvRAxbu1Z-3">
          <mxGeometry relative="1" as="geometry" />
        </mxCell>
        <mxCell id="Tzr4vlSNrSpTryhZv_By-56" value="Создание новостной статьи" style="ellipse;whiteSpace=wrap;html=1;" vertex="1" parent="1">
          <mxGeometry x="264.5" y="720" width="127" height="40" as="geometry" />
        </mxCell>
        <mxCell id="Tzr4vlSNrSpTryhZv_By-58" value="Снятие должности автора" style="ellipse;whiteSpace=wrap;html=1;" vertex="1" parent="1">
          <mxGeometry x="266" y="790" width="124" height="40" as="geometry" />
        </mxCell>
        <mxCell id="Tzr4vlSNrSpTryhZv_By-60" style="edgeStyle=orthogonalEdgeStyle;rounded=0;orthogonalLoop=1;jettySize=auto;html=1;exitX=0.5;exitY=1;exitDx=0;exitDy=0;" edge="1" parent="1" source="Tzr4vlSNrSpTryhZv_By-40" target="Tzr4vlSNrSpTryhZv_By-40">
          <mxGeometry relative="1" as="geometry" />
        </mxCell>
        <mxCell id="Tzr4vlSNrSpTryhZv_By-63" value="Пользователь делится новостью в соц. сети" style="ellipse;whiteSpace=wrap;html=1;" vertex="1" parent="1">
          <mxGeometry x="480" y="140" width="120" height="80" as="geometry" />
        </mxCell>
        <mxCell id="Tzr4vlSNrSpTryhZv_By-65" value="Переход на страницу журнала в другом ресурсе" style="ellipse;whiteSpace=wrap;html=1;" vertex="1" parent="1">
          <mxGeometry x="277" y="620" width="120" height="80" as="geometry" />
        </mxCell>
        <mxCell id="Tzr4vlSNrSpTryhZv_By-68" style="edgeStyle=orthogonalEdgeStyle;rounded=0;orthogonalLoop=1;jettySize=auto;html=1;entryX=1;entryY=0.5;entryDx=0;entryDy=0;curved=1;dashed=1;" edge="1" parent="1" source="Tzr4vlSNrSpTryhZv_By-67" target="Tzr4vlSNrSpTryhZv_By-7">
          <mxGeometry relative="1" as="geometry" />
        </mxCell>
        <mxCell id="Tzr4vlSNrSpTryhZv_By-69" value="extend" style="edgeLabel;html=1;align=center;verticalAlign=middle;resizable=0;points=[];" connectable="0" vertex="1" parent="Tzr4vlSNrSpTryhZv_By-68">
          <mxGeometry x="-0.0396" relative="1" as="geometry">
            <mxPoint y="1" as="offset" />
          </mxGeometry>
        </mxCell>
        <mxCell id="Tzr4vlSNrSpTryhZv_By-67" value="Пользователь использует мобильную версию сайта" style="ellipse;whiteSpace=wrap;html=1;" vertex="1" parent="1">
          <mxGeometry x="540" y="-30" width="120" height="80" as="geometry" />
        </mxCell>
        <mxCell id="Tzr4vlSNrSpTryhZv_By-70" style="edgeStyle=orthogonalEdgeStyle;rounded=0;orthogonalLoop=1;jettySize=auto;html=1;entryX=0.052;entryY=0.919;entryDx=0;entryDy=0;entryPerimeter=0;curved=1;exitX=1;exitY=0.5;exitDx=0;exitDy=0;" edge="1" parent="1" source="Tzr4vlSNrSpTryhZv_By-16" target="Tzr4vlSNrSpTryhZv_By-10">
          <mxGeometry relative="1" as="geometry" />
        </mxCell>
      </root>
    </mxGraphModel>
  </diagram>
</mxfile>
